HIERARCHY
ROOT Hips
{
  OFFSET -35.2597 29.1586 114.425
  CHANNELS 6 Xposition Yposition Zposition Zrotation Xrotation Yrotation
  JOINT LeftUpLeg
  {
    OFFSET 8.64259 1.95398 -2.38835
    CHANNELS 3 Zrotation Xrotation Yrotation
    JOINT LeftLeg
    {
      OFFSET 43.7702 0 0
      CHANNELS 3 Zrotation Xrotation Yrotation
      JOINT LeftFoot
      {
        OFFSET 40.6238 0 0
        CHANNELS 3 Zrotation Xrotation Yrotation
        JOINT LeftToeBase
        {
          OFFSET 12.7242 0 0
          CHANNELS 3 Zrotation Xrotation Yrotation
          End Site
          {
            OFFSET 0 0 0
          }
        }
      }
    }
  }
  JOINT RightUpLeg
  {
    OFFSET -8.2249 1.95398 -2.59336
    CHANNELS 3 Zrotation Xrotation Yrotation
    JOINT RightLeg
    {
      OFFSET 43.5653 0 0
      CHANNELS 3 Zrotation Xrotation Yrotation
      JOINT RightFoot
      {
        OFFSET 40.6238 0 0
        CHANNELS 3 Zrotation Xrotation Yrotation
        JOINT RightToeBase
        {
          OFFSET 12.7242 0 0
          CHANNELS 3 Zrotation Xrotation Yrotation
          End Site
          {
            OFFSET 0 0 0
          }
        }
      }
    }
  }
  JOINT Spine
  {
    OFFSET 0.165834 0.87714 6.61349
    CHANNELS 3 Zrotation Xrotation Yrotation
    JOINT Spine1
    {
      OFFSET 7.38963 1.71661e-005 0
      CHANNELS 3 Zrotation Xrotation Yrotation
      JOINT Spine2
      {
        OFFSET 11.9445 1.14441e-005 0
        CHANNELS 3 Zrotation Xrotation Yrotation
        JOINT Spine3
        {
          OFFSET 14.7254 4.19617e-005 0
          CHANNELS 3 Zrotation Xrotation Yrotation
          JOINT Spine4
          {
            OFFSET 10.9679 0 0
            CHANNELS 3 Zrotation Xrotation Yrotation
            JOINT RightShoulder
            {
              OFFSET 2.46616 -1.6653 3.69651
              CHANNELS 3 Zrotation Xrotation Yrotation
              JOINT RightArm
              {
                OFFSET 13.0012 0 0
                CHANNELS 3 Zrotation Xrotation Yrotation
                JOINT RightForeArm
                {
                  OFFSET 28.7848 1.62311e-005 0
                  CHANNELS 3 Zrotation Xrotation Yrotation
                  JOINT RightHand
                  {
                    OFFSET 26.5688 1.62095e-005 0
                    CHANNELS 3 Zrotation Xrotation Yrotation
                    End Site
                    {
                      OFFSET 0 0 0
                    }
                  }
                }
              }
            }
            JOINT LeftShoulder
            {
              OFFSET 2.38034 -1.29275 -3.7523
              CHANNELS 3 Zrotation Xrotation Yrotation
              JOINT LeftArm
              {
                OFFSET 16.3182 6.07031e-005 0
                CHANNELS 3 Zrotation Xrotation Yrotation
                JOINT LeftForeArm
                {
                  OFFSET 27.0901 0 0
                  CHANNELS 3 Zrotation Xrotation Yrotation
                  JOINT LeftHand
                  {
                    OFFSET 24.5451 1.51738e-005 0
                    CHANNELS 3 Zrotation Xrotation Yrotation
                    End Site
                    {
                      OFFSET 0 0 0
                    }
                  }
                }
              }
            }
            JOINT Neck
            {
              OFFSET 5.0226 -0.0266342 0
              CHANNELS 3 Zrotation Xrotation Yrotation
              JOINT Head
              {
                OFFSET 6.69364 2.86102e-005 0
                CHANNELS 3 Zrotation Xrotation Yrotation
                End Site
                {
                  OFFSET 0 0 0
                }
              }
            }
          }
        }
      }
    }
  }
}
MOTION
Frames:	10
Frame Time:	0.0416667
271.82 81.7599 271.618 -79.7186 40.1228 -103.355 -164.688 49.5868 76.0656 -70.5539 6.06865 -7.18975 88.4203 15.5721 -0.696841 19.5957 -6.4456 2.80989 169.948 15.4705 91.6358 -103.096 -4.23906 -3.04257 66.3308 2.04027 3.34256 91.0915 -20.2346 13.805 1.05763 8.1815 -88.7716 10.481 2.67033 2.20429 -1.1889 2.76473 2.08462 -23.7215 1.88469 2.90465 -3.70889 1.8847 2.90465 90.8915 -28.8762 -105.396 22.2966 14.4987 -47.0818 -4.62163 -30.5405 -5.10896 -65.1734 30.7541 -52.1819 -89.1541 -57.3328 81.3668 -38.1924 36.1467 -99.9654 179.438 12.7049 -179.999 -79.3561 -60.6287 68.241 18.787 -8.03732 -13.6282 -1.54601 -3.67233 2.148 
260.109 88.8065 257.781 -83.6164 38.1777 -103.627 -170.37 22.8336 79.8267 -50.7471 -1.73438 -4.60941 93.7954 18.5207 -9.50993 28.9807 -0.514466 1.38924 170.406 29.9527 88.4812 -106.218 -1.00165 -3.07034 68.3185 -7.26378 -7.11244 51.4837 -9.58307 6.55454 -0.10735 8.19416 -88.4145 10.4707 0.513185 3.09338 -1.20429 0.648734 3.06783 -23.7069 -0.439635 3.10472 -3.69424 -0.439638 3.10472 92.8312 -30.8193 -100.854 31.1626 7.37702 -40.7233 -5.00762 -37.0975 -5.30043 -70.1848 40.7625 -61.5597 -88.4181 -56.7704 82.2938 -36.569 41.8747 -84.7121 173.701 25.9661 -162.532 -52.6778 -66.6077 90.2408 14.9781 -4.88937 -13.6386 -0.978073 -1.08268 1.22231 
247.351 89.6938 245.609 -85.2707 37.8899 -96.9142 -171.114 4.50547 88.0487 -39.0179 4.22891 -1.91509 94.4704 23.6026 -5.25009 36.6067 1.34486 6.01088 174.325 44.2615 92.219 -102.252 -7.19798 -3.43181 73.3833 -10.4588 -9.8334 19.145 -0.0201413 11.0332 -1.63053 8.1869 -89.0729 10.519 -2.82141 2.11347 -1.15054 -2.72568 2.23561 -23.7067 -3.32607 1.16724 -3.69405 -3.32605 1.16725 94.1917 -25.2047 -99.7191 47.062 -3.17099 -33.0742 -3.09122 5.65037 -4.72623 -17.8387 29.2886 -121.544 -85.5186 -43.1345 84.4238 -13.8033 24.9974 -24.91 -99.0601 -0.77236 -89.9896 -63.0623 0.145513 3.41978 14.7967 2.28538 -9.96406 -2.66907 4.88704 1.55383 
233.684 93.1339 231.704 -87.0111 42.5801 -88.7404 -168.614 -13.2041 96.2571 -22.128 8.82131 -0.0485338 66.2081 7.13933 2.80213 58.8106 12.6341 4.87241 178.036 48.1749 96.8463 -76.9716 -2.57049 -2.28548 73.1186 -7.72746 -4.84692 21.8624 -0.987316 11.0991 -2.31349 7.82732 -90.2755 11.2357 -4.73218 -0.0784016 -0.426649 -4.73101 0.130401 -23.0262 -4.48951 -1.49989 -3.01352 -4.48949 -1.49989 95.3709 -21.0371 -98.2561 53.7067 -1.20079 -15.9559 -3.04218 5.22599 -4.92547 -6.7305 10.8152 -129.665 -84.5868 -37.1311 85.0348 -10.5393 24.6645 -16.5996 -117.629 11.574 -86.2885 -67.4847 -1.68484 -1.8685 13.4977 9.56717 -2.87362 -10.0656 9.82526 3.12833 
218.957 96.1797 216.574 -85.7744 48.1327 -83.9585 -170.162 -19.4114 97.5681 -23.2191 9.33343 3.8588 54.3029 -4.68147 0.605655 14.2778 -5.91792 -2.57103 -178.111 43.0365 99.8368 -41.045 -7.52387 -1.15231 68.8091 -5.3883 -0.947487 20.6032 1.51549 5.34212 -2.6341 7.95002 -91.515 10.913 -5.94481 -2.45307 -0.746184 -6.04695 -2.18831 -23.3437 -4.93282 -4.12868 -3.33101 -4.93281 -4.12867 93.0758 -16.9879 -105.387 48.67 5.61357 -3.60752 -5.0006 -37.3325 -5.28409 -32.7236 37.4726 -104.51 -83.4355 -35.7196 86.8718 -10.2518 19.8372 3.04196 -121.703 21.4199 -78.2592 -63.8583 -4.11411 2.39031 14.2512 16.0337 5.51988 -11.5028 13.8675 4.21765 
206.394 95.2003 202.575 -89.0192 51.7221 -84.143 -170.132 -19.9544 92.5069 -41.5652 18.7194 0.9258 59.185 -0.368143 4.97546 24.0947 0.158139 -4.79282 -177.06 36.2215 98.1578 -25.4692 -19.5694 -1.51338 70.6316 -7.94552 -1.85277 25.9624 0.274943 2.90886 -2.235 7.87321 -91.3663 11.0839 -5.08253 -2.22158 -0.578606 -5.17532 -1.99529 -23.1571 -4.17999 -3.64768 -3.14446 -4.18 -3.64769 92.2229 -23.6218 -104.655 38.3464 11.4975 4.82807 -4.57419 -48.5791 -4.11037 -41.6822 34.8995 -85.6457 -85.4464 -41.3281 84.2479 -13.2339 24.9542 16.4752 -123.388 21.4835 -77.2318 -54.6885 -5.98948 7.56227 11.7628 16.5718 6.94259 -9.24904 14.3144 3.77039 
194.456 93.4394 188.532 -97.9061 51.7145 -78.9712 -164.023 -11.2686 95.7163 -69.0025 -1.14992 -0.335674 59.9403 -0.382562 5.28211 25.3488 2.21068 -7.7847 179.991 27.5887 97.563 -29.5064 -13.3028 -0.242775 66.3595 -4.37813 -1.09815 22.2268 0.575802 6.10326 -1.78727 8.16814 -91.0751 10.5047 -4.05367 -1.77721 -1.16085 -4.12792 -1.59686 -23.724 -3.33218 -2.91404 -3.71139 -3.33218 -2.91404 90.5746 -32.0296 -104.835 33.1495 12.5316 21.7649 -26.0267 -40.0105 -35.8807 -49.4978 27.6129 -57.0807 -86.1138 -51.1049 84.7007 -24.2892 24.4415 20.9148 -124.177 9.82609 -86.3934 -39.2923 -4.14024 7.54436 9.69291 14.8032 7.98863 -7.53855 12.5978 2.9341 
184.45 91.7637 175.66 -102.094 53.2758 -70.2705 -159.497 7.38272 102.988 -91.4679 -9.22244 2.57345 64.877 3.87399 9.23808 20.5719 -0.168684 -6.99441 178.089 25.605 103.857 -46.4224 -13.9554 1.14717 67.0512 -5.29456 -4.67257 19.6918 1.56066 6.11765 -0.378469 8.31542 -91.7149 10.2098 -1.53683 -3.27819 -1.46436 -1.67956 -3.20748 -23.9658 -0.4813 -3.58803 -3.95317 -0.481294 -3.58804 88.8953 -36.4094 -106.531 35.6197 6.72689 28.3454 -32.8633 -16.67 -65.8805 -54.5321 16.1373 -36.9834 -86.9342 -58.2163 84.5726 -30.3092 10.01 30.2453 -111.495 -0.581848 -91.5422 -29.0357 -4.55319 14.2568 10.5219 10.9022 8.5617 -7.56962 8.56737 2.60572 
174.26 90.7179 164.169 -105.079 50.7036 -67.3714 -168.114 25.9956 98.7193 -97.8422 3.61129 3.94033 70.0788 8.27519 10.7591 20.4906 0.421705 -8.12385 176.49 13.7544 103.511 -52.5227 -13.8995 1.52781 78.0673 -14.5175 -7.34741 26.1091 -0.750947 5.92836 0.48554 8.50316 -91.7575 9.85701 0.170903 -3.50073 -1.81865 0.0167704 -3.50488 -24.3195 1.21454 -3.28799 -4.30681 1.21456 -3.28799 87.0336 -37.2166 -109.55 31.6649 5.27338 7.57107 -27.0267 -10.3297 -70.7275 -57.3193 17.2412 -36.5237 -85.5104 -55.9926 86.256 -32.0926 9.95103 54.3755 -118.628 7.51061 -87.2515 -31.1449 -3.87838 10.3225 12.6208 6.34355 5.53255 -7.18519 4.65126 3.12191 
162.646 92.4091 151.704 -100.523 49.2956 -76.4794 -171.646 36.788 89.2358 -77.7629 -3.3564 2.08384 75.3073 10.9718 8.22659 23.3835 1.57725 -8.0253 173.4 1.82532 92.1583 -43.6654 -16.1917 1.17591 81.4696 -16.7832 -6.78888 30.8959 -2.42085 5.88375 1.61473 7.90428 -90.9703 11.0937 2.76399 -2.19281 -0.576529 2.66483 -2.31233 -23.1282 3.29515 -1.26036 -3.11558 3.29516 -1.26037 89.0989 -30.9389 -108.149 28.4526 7.51694 5.24964 -27.1337 -3.30811 -82.8255 -65.7025 16.3278 -30.4457 -84.5817 -52.2275 87.1367 -30.8227 6.19085 76.6103 -114.458 15.9267 -84.1554 -35.5596 -5.97852 15.2496 11.7131 -0.922312 2.40386 -7.85853 -1.53893 1.13921 
